<?xml version="1.0" encoding="UTF-8" standalone="no"?>
<!-- Created with Inkscape (http://www.inkscape.org/) -->

<svg
   xmlns:dc="http://purl.org/dc/elements/1.1/"
   xmlns:cc="http://creativecommons.org/ns#"
   xmlns:rdf="http://www.w3.org/1999/02/22-rdf-syntax-ns#"
   xmlns:svg="http://www.w3.org/2000/svg"
   xmlns="http://www.w3.org/2000/svg"
   xmlns:sodipodi="http://sodipodi.sourceforge.net/DTD/sodipodi-0.dtd"
   xmlns:inkscape="http://www.inkscape.org/namespaces/inkscape"
   width="141.60713mm"
   height="134.80356mm"
   viewBox="0 0 141.60713 134.80356"
   version="1.1"
   id="svg4610"
   inkscape:version="0.92.4 (5da689c313, 2019-01-14)"
   sodipodi:docname="iss_withBackground.svg">
  <defs
     id="defs4604" />
  <sodipodi:namedview
     id="base"
     pagecolor="#ffffff"
     bordercolor="#666666"
     borderopacity="1.0"
     inkscape:pageopacity="0.0"
     inkscape:pageshadow="2"
     inkscape:zoom="0.49497475"
     inkscape:cx="126.16909"
     inkscape:cy="151.30649"
     inkscape:document-units="mm"
     inkscape:current-layer="layer1"
     showgrid="false"
     inkscape:window-width="1920"
     inkscape:window-height="1017"
     inkscape:window-x="-8"
     inkscape:window-y="-8"
     inkscape:window-maximized="1" />
  <metadata
     id="metadata4607">
    <rdf:RDF>
      <cc:Work
         rdf:about="">
        <dc:format>image/svg+xml</dc:format>
        <dc:type
           rdf:resource="http://purl.org/dc/dcmitype/StillImage" />
        <dc:title />
      </cc:Work>
    </rdf:RDF>
  </metadata>
  <g
     inkscape:label="Livello 1"
     inkscape:groupmode="layer"
     id="layer1"
     transform="translate(-31.379689,-72.702985)">
    <g
       id="g860">
      <ellipse
         ry="66.855621"
         rx="70.257408"
         cy="140.10477"
         cx="102.18326"
         id="path5296"
         style="fill:#ff0000;fill-opacity:0.46558706;stroke:#ffcdd2;stroke-width:1.09232128;stroke-miterlimit:4;stroke-dasharray:none;stroke-dashoffset:0;stroke-opacity:1" />
      <g
         transform="matrix(0.24009422,0,0,0.2501969,55.650458,89.210283)"
         id="g5259">
        <g
           id="g5202">
          <path
             inkscape:connector-curvature="0"
             d="m 115.342,188.015 c -7.025,0 -12.741,5.716 -12.741,12.741 0,7.025 5.716,12.741 12.741,12.741 7.026,0 12.742,-5.716 12.742,-12.741 0,-7.025 -5.716,-12.741 -12.742,-12.741 z m 0,17.482 c -2.614,0 -4.741,-2.127 -4.741,-4.741 0,-2.614 2.127,-4.741 4.741,-4.741 2.615,0 4.742,2.127 4.742,4.741 0,2.614 -2.127,4.741 -4.742,4.741 z"
             id="path5198" />
          <path
             inkscape:connector-curvature="0"
             d="m 397.294,164.141 c 2.209,0 4,-1.791 4,-4 V 89.215 c 0,-2.209 -1.791,-4 -4,-4 h -33.219 c -2.209,0 -4,1.791 -4,4 v 70.926 c 0,2.209 1.791,4 4,4 h 12.61 v 8.999 H 340.48 c -6.008,-4.585 -13.401,-7.094 -20.986,-7.094 -17.762,0 -32.434,13.455 -34.376,30.706 h -3.421 v -9.79 c 0,-2.209 -1.791,-4 -4,-4 h -28.993 l -6.173,-11.125 c -0.705,-1.271 -2.044,-2.059 -3.498,-2.059 H 199.52 v -6.524 h 16.196 c 2.209,0 4,-1.791 4,-4 V 73.281 c 0,-2.209 -1.791,-4 -4,-4 H 175.45 c -2.209,0 -4,1.791 -4,4 v 85.972 c 0,2.209 1.791,4 4,4 h 16.069 v 6.524 h -38.468 c -2.209,0 -4,1.791 -4,4 v 22.974 h -4.52 c -1.97,-15.047 -14.865,-26.705 -30.44,-26.705 -10.313,0 -19.703,5.125 -25.326,13.331 -5.623,-8.206 -15.012,-13.331 -25.326,-13.331 H 44.653 v -5.905 h 6.324 c 2.209,0 4,-1.791 4,-4 V 89.215 c 0,-2.209 -1.791,-4 -4,-4 H 17.758 c -2.209,0 -4,1.791 -4,4 v 70.926 c 0,2.209 1.791,4 4,4 h 6.325 v 5.905 H 4 c -2.209,0 -4,1.791 -4,4 v 53.419 c 0,2.209 1.791,4 4,4 h 20.083 v 5.905 h -6.325 c -2.209,0 -4,1.791 -4,4 v 70.927 c 0,2.209 1.791,4 4,4 h 33.219 c 2.209,0 4,-1.791 4,-4 V 241.37 c 0,-2.209 -1.791,-4 -4,-4 h -6.325 v -5.905 h 18.789 c 10.313,0 19.703,-5.125 25.326,-13.331 5.624,8.205 15.013,13.331 25.326,13.331 15.578,0 28.476,-11.663 30.441,-26.714 h 4.518 v 22.765 c 0,2.209 1.791,4 4,4 h 38.468 v 6.524 h -16.069 c -2.209,0 -4,1.791 -4,4 v 85.972 c 0,2.209 1.791,4 4,4 h 40.266 c 2.209,0 4,-1.791 4,-4 V 242.04 c 0,-2.209 -1.791,-4 -4,-4 h -16.196 v -6.524 h 39.513 c 1.454,0 2.792,-0.789 3.498,-2.059 l 6.173,-11.125 h 28.993 c 2.209,0 4,-1.791 4,-4 v -9.581 h 3.447 c 2.037,17.151 16.66,30.497 34.35,30.497 7.581,0 14.972,-2.507 20.978,-7.087 h 36.214 v 9.209 h -12.61 c -2.209,0 -4,1.791 -4,4 v 70.927 c 0,2.209 1.791,4 4,4 h 33.219 c 2.209,0 4,-1.791 4,-4 V 241.37 c 0,-2.209 -1.791,-4 -4,-4 h -12.609 v -9.209 h 12.435 c 2.209,0 4,-1.791 4,-4 V 177.14 c 0,-2.209 -1.791,-4 -4,-4 h -12.435 v -8.999 z m -197.773,-8.888 v -13.221 h 12.196 v 13.221 z m -8,-42.986 H 179.452 V 98.502 h 12.069 z m 8,-13.765 h 12.196 v 13.765 h -12.196 z m -8,21.765 v 13.765 h -12.069 v -13.765 z m 8,0 h 12.196 v 13.765 H 199.521 Z M 211.717,90.502 H 199.521 V 77.281 h 12.196 z M 191.521,77.281 V 90.502 H 179.452 V 77.281 Z m -12.07,77.972 v -13.221 h 12.069 v 13.221 z M 24.689,223.466 v -45.419 h 22.038 v 45.419 z m 30.038,-45.42 h 6.641 v 45.419 h -6.641 z m -7.75,-49.368 v 9.956 H 21.758 v -9.956 z m -25.219,-8 v -9.957 h 25.219 v 9.957 z M 46.977,93.215 v 9.507 H 21.758 v -9.507 z m -25.219,53.419 h 25.219 v 9.507 H 21.758 Z m 10.325,17.507 h 4.569 v 5.905 H 32.083 Z M 8,178.046 h 8.689 v 45.419 H 8 Z m 13.758,94.788 v -9.956 h 25.219 v 9.956 z m 25.219,8 v 9.956 H 21.758 v -9.956 z m -25.219,27.464 v -9.507 h 25.219 v 9.507 z m 25.219,-53.42 H 21.758 v -9.507 H 46.977 Z M 36.652,237.371 h -4.569 v -5.905 h 4.569 z m 32.716,-14.704 v -43.822 c 6.952,1.876 12.703,6.983 15.31,13.918 v 15.987 c -2.607,6.934 -8.358,12.041 -15.31,13.917 z m 44.725,0.799 c -9.664,0 -18.222,-6.091 -21.415,-15.184 v -15.05 c 3.193,-9.094 11.751,-15.185 21.415,-15.185 12.522,0 22.709,10.188 22.709,22.71 0,12.521 -10.187,22.709 -22.709,22.709 z m 77.428,22.574 v 13.221 H 179.452 V 246.04 Z m 8,42.987 h 12.196 v 13.765 h -12.196 z m -8,13.765 h -12.069 v -13.765 h 12.069 z m 8,-21.765 v -13.765 h 12.196 v 13.765 z m -8,0 h -12.069 v -13.765 h 12.069 z m -12.07,29.765 h 12.069 v 13.221 h -12.069 z m 20.07,13.22 v -13.221 h 12.196 v 13.221 z m 12.196,-77.972 v 13.221 H 199.521 V 246.04 Z m -54.665,-68.262 h 11.046 v 45.739 h -11.046 z m 79.626,45.738 h -60.58 v -45.739 h 60.58 l 5.311,9.571 v 26.596 z m 37.018,-13.184 h -23.707 v -19.371 h 23.707 z m 94.379,62.502 v -9.956 h 25.219 v 9.956 z m 25.219,8 v 9.956 h -25.219 v -9.956 z m -25.219,27.464 v -9.507 h 25.219 v 9.507 z m 25.219,-53.42 h -25.219 v -9.507 h 25.219 z M 292.892,200.647 c 0,-8.817 4.315,-16.641 10.94,-21.484 v 42.968 c -6.625,-4.843 -10.94,-12.668 -10.94,-21.484 z m 26.601,26.601 c -2.663,0 -5.234,-0.398 -7.661,-1.129 v -50.944 c 2.428,-0.731 4.998,-1.129 7.661,-1.129 6.217,0 12.267,2.193 17.036,6.175 0.248,0.208 0.521,0.368 0.803,0.506 v 39.849 c -0.29,0.141 -0.57,0.304 -0.821,0.513 -4.764,3.972 -10.808,6.159 -17.018,6.159 z m 73.626,-7.087 H 345.332 V 181.14 h 47.787 z m 0.175,-91.483 v 9.956 h -25.219 v -9.956 z m -25.219,-8 v -9.957 h 25.219 v 9.957 z m 25.219,-27.463 v 9.507 h -25.219 v -9.507 z m -25.219,53.419 h 25.219 v 9.507 h -25.219 z"
             id="path5200" />
        </g>
        <g
           id="g5204" />
        <g
           id="g5206" />
        <g
           id="g5208" />
        <g
           id="g5210" />
        <g
           id="g5212" />
        <g
           id="g5214" />
        <g
           id="g5216" />
        <g
           id="g5218" />
        <g
           id="g5220" />
        <g
           id="g5222" />
        <g
           id="g5224" />
        <g
           id="g5226" />
        <g
           id="g5228" />
        <g
           id="g5230" />
        <g
           id="g5232" />
      </g>
    </g>
  </g>
</svg>
